# xmcd CD database file
#
# Track frame offsets:
#	150
#	19536
#	49192
#	77470
#	98533
#	125469
#	151874
#	185187
#	217904
#	238874
#	265476
#	279168
#	299174
#	324342
#
# Disc length: 4775 seconds
#
# Revision: 0
# Processed by: cddbd v1.5PL3 Copyright (c) Steve Scherf et al.
# Submitted via: CDex 1.51
#
DISCID=c012a50e
DTITLE=Maynard Ferguson - 2
DYEAR=2003
DGENRE=Jazz
TTITLE0=Stan Kenton presents Maynard Ferguson
TTITLE1=Soar Like An Eagle
TTITLE2=Kilimanjaro Cookout with Buddy Rich
TTITLE3=At The Sound Of The Trumpet with Buddy Rich
TTITLE4=Aquarius
TTITLE5=West Side Story
TTITLE6=Hey Jude
TTITLE7=Waltz of the Mushroom
TTITLE8=Coconut Champagne
TTITLE9=Pagliacci
TTITLE10=Say It With Trumpets
TTITLE11=Trumpet Rhapsody
TTITLE12=Birdland
TTITLE13=Stella By Starlight
EXTD=YEAR: 2003
EXTT0=
EXTT1=
EXTT2=
EXTT3=
EXTT4=
EXTT5=
EXTT6=
EXTT7=
EXTT8=
EXTT9=
EXTT10=
EXTT11=
EXTT12=
EXTT13=
PLAYORDER=
